<?xml version="1.0" encoding="utf-8"?>
<!-- Generator: Adobe Illustrator 13.0.0, SVG Export Plug-In  -->
<!DOCTYPE svg PUBLIC "-//W3C//DTD SVG 1.1//EN" "http://www.w3.org/Graphics/SVG/1.1/DTD/svg11.dtd" [
	<!ENTITY ns_flows "http://ns.adobe.com/Flows/1.0/">
]>
<svg version="1.1"
	 xmlns="http://www.w3.org/2000/svg" xmlns:xlink="http://www.w3.org/1999/xlink" xmlns:a="http://ns.adobe.com/AdobeSVGViewerExtensions/3.0/"
	 x="0px" y="0px" width="162px" height="28px" viewBox="-0.922 -1.349 162 28" enable-background="new -0.922 -1.349 162 28"
	 xml:space="preserve">
<defs>
</defs>
<path fill="#4F4F4F" d="M12.156,15.329c-0.635,1.527-1.194,2.963-1.678,4.309c-0.181-0.03-0.359-0.057-0.533-0.08
	c-0.174-0.022-0.367-0.034-0.579-0.034c-0.167,0-0.344,0.012-0.533,0.034c-0.189,0.023-0.39,0.049-0.601,0.08
	c-0.378-1.043-0.791-2.064-1.236-3.062c-0.446-0.998-0.873-2.019-1.281-3.062c-0.257-0.635-0.529-1.251-0.816-1.849
	c-0.288-0.597-0.56-1.213-0.816-1.848c-0.167,0.832-0.303,1.659-0.408,2.483c-0.106,0.824-0.212,1.667-0.317,2.529
	c-0.122,0.998-0.22,1.897-0.295,2.699c-0.076,0.802-0.129,1.527-0.159,2.177C2.45,19.57,1.98,19.502,1.497,19.502
	c-0.257,0-0.507,0.019-0.749,0.057C0.506,19.597,0.257,19.646,0,19.706c0.302-1.149,0.567-2.294,0.794-3.436
	c0.227-1.141,0.446-2.302,0.658-3.481c0.257-1.33,0.484-2.721,0.68-4.173S2.479,5.75,2.585,4.375l0.068-0.907
	c0.348,0.076,0.695,0.129,1.043,0.159S4.392,3.671,4.74,3.671c0.378,0,0.733-0.015,1.066-0.045c0.333-0.03,0.68-0.083,1.043-0.159
	c0.136,0.394,0.303,0.851,0.499,1.372C7.544,5.361,7.76,5.913,7.995,6.495c0.234,0.583,0.484,1.179,0.749,1.792
	c0.264,0.612,0.525,1.209,0.782,1.792s0.51,1.138,0.76,1.667s0.473,0.998,0.669,1.406c0.68-1.588,1.372-3.202,2.075-4.842
	c0.703-1.64,1.334-3.254,1.894-4.842c0.333,0.076,0.665,0.129,0.998,0.159c0.332,0.03,0.672,0.045,1.021,0.045
	c0.348,0,0.703-0.011,1.066-0.034c0.363-0.023,0.718-0.08,1.066-0.17l0.272,2.926c0.061,0.59,0.136,1.274,0.227,2.053
	c0.09,0.779,0.185,1.591,0.283,2.438s0.208,1.708,0.329,2.585c0.121,0.877,0.238,1.708,0.352,2.495
	c0.113,0.787,0.23,1.505,0.352,2.155c0.121,0.65,0.234,1.179,0.34,1.587c-0.484-0.06-0.949-0.109-1.395-0.147
	c-0.446-0.038-0.904-0.057-1.372-0.057c-0.454,0-0.907,0.019-1.361,0.057c-0.454,0.038-0.9,0.087-1.338,0.147
	c-0.076-0.998-0.155-1.973-0.238-2.926c-0.083-0.953-0.178-1.928-0.284-2.926c-0.076-0.74-0.167-1.493-0.272-2.256
	c-0.106-0.763-0.204-1.417-0.295-1.962l-0.544,1.202C13.449,12.305,12.792,13.802,12.156,15.329z"/>
<path fill="#4F4F4F" d="M23.326,11.314c-0.008-0.529-0.02-0.982-0.034-1.361c-0.015-0.377-0.034-0.722-0.057-1.032
	c-0.023-0.31-0.049-0.676-0.08-1.1c0.423,0.076,0.843,0.129,1.259,0.159c0.416,0.031,0.843,0.045,1.281,0.045
	c0.877,0,1.731-0.068,2.563-0.204c-0.091,1.24-0.147,2.378-0.17,3.414c-0.023,1.036-0.034,1.917-0.034,2.642v1.225
	c0,0.348,0.003,0.726,0.011,1.134c0.007,0.409,0.015,0.817,0.023,1.225c0.007,0.408,0.022,0.805,0.045,1.19
	c0.023,0.386,0.042,0.737,0.057,1.055c-0.439-0.06-0.881-0.109-1.327-0.147c-0.446-0.038-0.888-0.057-1.327-0.057
	c-0.393,0-0.793,0.022-1.202,0.068c-0.408,0.045-0.809,0.091-1.202,0.136c0.045-0.544,0.083-1.013,0.113-1.406
	c0.03-0.393,0.049-0.805,0.057-1.236c0.007-0.431,0.015-0.93,0.023-1.497c0.007-0.567,0.011-1.289,0.011-2.166
	C23.337,12.54,23.333,11.844,23.326,11.314z M23.507,3.558c0.128-0.287,0.302-0.541,0.521-0.76c0.219-0.219,0.473-0.393,0.76-0.521
	s0.597-0.193,0.93-0.193c0.317,0,0.62,0.064,0.907,0.193c0.287,0.128,0.54,0.299,0.76,0.51c0.219,0.212,0.393,0.465,0.521,0.76
	S28.1,4.148,28.1,4.465s-0.064,0.624-0.193,0.918s-0.303,0.548-0.521,0.76c-0.22,0.212-0.473,0.382-0.76,0.51
	c-0.288,0.129-0.59,0.193-0.907,0.193c-0.333,0-0.643-0.064-0.93-0.193c-0.287-0.128-0.541-0.302-0.76-0.521
	s-0.393-0.472-0.521-0.76c-0.128-0.287-0.193-0.59-0.193-0.907S23.379,3.846,23.507,3.558z"/>
<path fill="#4F4F4F" d="M30.889,12.018c0-0.816-0.015-1.542-0.045-2.177c-0.031-0.635-0.083-1.308-0.159-2.019
	c0.377,0.061,0.774,0.11,1.19,0.147c0.416,0.038,0.82,0.057,1.213,0.057c0.801,0,1.588-0.068,2.359-0.204
	c-0.015,0.59-0.061,1.18-0.136,1.769c0.272-0.302,0.541-0.567,0.805-0.793c0.264-0.227,0.541-0.42,0.828-0.579
	s0.59-0.275,0.907-0.352c0.318-0.075,0.681-0.113,1.089-0.113c1.27,0,2.23,0.329,2.88,0.986c0.65,0.658,0.975,1.622,0.975,2.892
	v0.862c0,0.317-0.004,0.643-0.011,0.975c-0.008,0.333-0.012,0.658-0.012,0.975v0.862v0.975c0,0.56,0.004,1.149,0.012,1.769
	c0.007,0.62,0.026,1.172,0.057,1.656c-0.408-0.06-0.816-0.109-1.225-0.147c-0.408-0.038-0.817-0.057-1.225-0.057
	c-0.393,0-0.809,0.019-1.247,0.057c-0.439,0.038-0.854,0.087-1.248,0.147c0.061-1.134,0.105-2.245,0.136-3.334
	c0.03-1.088,0.045-2.2,0.045-3.334c0-0.302-0.008-0.597-0.023-0.884s-0.064-0.552-0.147-0.794c-0.083-0.242-0.208-0.435-0.374-0.578
	c-0.167-0.144-0.401-0.215-0.703-0.215c-0.333,0-0.586,0.098-0.76,0.294c-0.174,0.197-0.303,0.454-0.386,0.771
	c-0.083,0.317-0.132,0.68-0.147,1.088c-0.016,0.408-0.023,0.824-0.023,1.248v2.041c0,0.877,0.011,1.595,0.034,2.155
	c0.022,0.56,0.057,1.074,0.102,1.542c-0.439-0.03-0.866-0.072-1.282-0.125c-0.416-0.053-0.843-0.08-1.281-0.08
	c-0.408,0-0.813,0.022-1.213,0.068c-0.401,0.045-0.805,0.091-1.213,0.136c0.091-0.967,0.151-1.943,0.182-2.926
	c0.03-0.982,0.045-1.973,0.045-2.971V12.018z"/>
<path fill="#4F4F4F" d="M45.358,10.986c0.348-0.794,0.779-1.433,1.293-1.917c0.514-0.484,1.058-0.824,1.633-1.021
	c0.574-0.196,1.089-0.295,1.542-0.295c0.409,0,0.768,0.038,1.078,0.113c0.31,0.076,0.582,0.17,0.816,0.284
	c0.234,0.113,0.438,0.238,0.612,0.374c0.174,0.136,0.336,0.265,0.488,0.386c0-1.089-0.016-2.162-0.045-3.221
	c-0.031-1.058-0.068-2.132-0.114-3.22c0.423,0.076,0.824,0.128,1.202,0.159s0.786,0.045,1.225,0.045
	c0.907,0,1.777-0.068,2.608-0.204c-0.106,1.406-0.167,2.88-0.182,4.422s-0.022,3.017-0.022,4.422c0,0.998,0.004,1.894,0.012,2.688
	c0.007,0.794,0.019,1.52,0.033,2.177c0.016,0.658,0.038,1.27,0.068,1.837c0.03,0.567,0.068,1.13,0.113,1.689
	c-0.393-0.06-0.775-0.109-1.145-0.147c-0.371-0.038-0.746-0.057-1.123-0.057c-0.394,0-0.779,0.019-1.157,0.057
	c-0.378,0.038-0.764,0.087-1.157,0.147c0.045-0.454,0.068-0.915,0.068-1.383c-0.242,0.287-0.476,0.525-0.703,0.714
	c-0.227,0.189-0.473,0.34-0.737,0.454c-0.265,0.113-0.544,0.189-0.839,0.227s-0.631,0.057-1.009,0.057
	c-0.907,0-1.682-0.166-2.325-0.499c-0.643-0.332-1.168-0.778-1.576-1.338c-0.408-0.559-0.707-1.187-0.896-1.882
	c-0.189-0.695-0.284-1.383-0.284-2.064C44.837,12.781,45.011,11.78,45.358,10.986z M52.208,17.551
	c0.196-0.211,0.347-0.502,0.453-0.873c0.106-0.37,0.174-0.812,0.205-1.327c0.03-0.514,0.045-1.066,0.045-1.656
	c0-1.406-0.11-2.407-0.329-3.005c-0.219-0.597-0.601-0.896-1.146-0.896c-0.333,0-0.601,0.11-0.805,0.329s-0.363,0.518-0.476,0.896
	c-0.113,0.378-0.189,0.821-0.227,1.327c-0.038,0.507-0.057,1.055-0.057,1.644c0,0.529,0.019,1.028,0.057,1.497
	c0.037,0.469,0.113,0.881,0.227,1.236c0.113,0.355,0.268,0.635,0.465,0.839c0.196,0.204,0.454,0.306,0.771,0.306
	C51.739,17.869,52.011,17.763,52.208,17.551z"/>
<path fill="#4F4F4F" d="M71.35,15.329c-0.635,1.527-1.195,2.963-1.679,4.309c-0.181-0.03-0.359-0.057-0.532-0.08
	c-0.175-0.022-0.367-0.034-0.579-0.034c-0.167,0-0.344,0.012-0.532,0.034c-0.189,0.023-0.391,0.049-0.602,0.08
	c-0.379-1.043-0.791-2.064-1.236-3.062c-0.445-0.998-0.873-2.019-1.281-3.062c-0.258-0.635-0.529-1.251-0.816-1.849
	c-0.287-0.597-0.56-1.213-0.816-1.848c-0.166,0.832-0.303,1.659-0.408,2.483s-0.212,1.667-0.317,2.529
	c-0.122,0.998-0.22,1.897-0.295,2.699c-0.076,0.802-0.129,1.527-0.159,2.177c-0.453-0.136-0.922-0.204-1.406-0.204
	c-0.257,0-0.506,0.019-0.748,0.057c-0.242,0.038-0.492,0.087-0.748,0.147c0.302-1.149,0.566-2.294,0.793-3.436
	c0.227-1.141,0.446-2.302,0.658-3.481c0.257-1.33,0.484-2.721,0.68-4.173c0.197-1.452,0.348-2.865,0.454-4.241l0.068-0.907
	c0.348,0.076,0.695,0.129,1.043,0.159s0.695,0.045,1.044,0.045c0.377,0,0.732-0.015,1.065-0.045s0.681-0.083,1.043-0.159
	c0.136,0.394,0.303,0.851,0.499,1.372c0.196,0.522,0.412,1.074,0.646,1.656c0.234,0.583,0.484,1.179,0.748,1.792
	c0.265,0.612,0.525,1.209,0.783,1.792c0.257,0.582,0.51,1.138,0.76,1.667c0.249,0.529,0.473,0.998,0.669,1.406
	c0.681-1.588,1.372-3.202,2.075-4.842c0.703-1.64,1.334-3.254,1.894-4.842c0.333,0.076,0.665,0.129,0.998,0.159
	c0.332,0.03,0.673,0.045,1.021,0.045s0.703-0.011,1.066-0.034c0.362-0.023,0.717-0.08,1.065-0.17l0.272,2.926
	c0.061,0.59,0.136,1.274,0.227,2.053c0.09,0.779,0.186,1.591,0.283,2.438s0.208,1.708,0.329,2.585
	c0.12,0.877,0.237,1.708,0.352,2.495c0.113,0.787,0.229,1.505,0.352,2.155c0.12,0.65,0.233,1.179,0.34,1.587
	c-0.483-0.06-0.948-0.109-1.395-0.147c-0.446-0.038-0.903-0.057-1.372-0.057c-0.453,0-0.907,0.019-1.361,0.057
	c-0.453,0.038-0.899,0.087-1.338,0.147c-0.076-0.998-0.154-1.973-0.238-2.926c-0.083-0.953-0.178-1.928-0.283-2.926
	c-0.076-0.74-0.166-1.493-0.271-2.256c-0.106-0.763-0.205-1.417-0.295-1.962l-0.545,1.202C72.643,12.305,71.984,13.802,71.35,15.329
	z"/>
<path fill="#4F4F4F" d="M81.951,15.182c0.205-0.4,0.492-0.737,0.862-1.009c0.37-0.272,0.81-0.499,1.315-0.681
	c0.506-0.181,1.055-0.355,1.645-0.521c0.529-0.136,0.956-0.253,1.281-0.352c0.325-0.098,0.574-0.2,0.748-0.306
	c0.174-0.105,0.291-0.227,0.352-0.363s0.092-0.31,0.092-0.521c0-0.318-0.05-0.579-0.148-0.783c-0.098-0.204-0.238-0.363-0.42-0.476
	c-0.181-0.114-0.393-0.189-0.635-0.227c-0.242-0.038-0.498-0.057-0.771-0.057c-0.499,0-0.976,0.091-1.429,0.272
	c-0.454,0.182-0.809,0.499-1.066,0.953l-0.658-0.045l-0.453-2.018c0.816-0.438,1.613-0.764,2.393-0.976
	c0.779-0.211,1.637-0.317,2.574-0.317c0.862,0,1.606,0.099,2.234,0.295c0.627,0.197,1.145,0.458,1.553,0.782
	c0.408,0.326,0.711,0.707,0.908,1.146c0.195,0.438,0.295,0.9,0.295,1.383c0,0.288-0.008,0.631-0.023,1.032
	c-0.016,0.4-0.026,0.809-0.033,1.225c-0.008,0.416-0.02,0.816-0.035,1.202c-0.015,0.385-0.021,0.714-0.021,0.986
	s0.003,0.525,0.011,0.76c0.007,0.234,0.038,0.442,0.091,0.624c0.053,0.182,0.133,0.322,0.238,0.42s0.257,0.147,0.453,0.147
	c0.272,0,0.552-0.083,0.84-0.249c-0.016,0.121-0.031,0.234-0.046,0.34c-0.015,0.106-0.022,0.22-0.022,0.34
	c0,0.106,0.008,0.208,0.022,0.306c0.015,0.099,0.03,0.201,0.046,0.306c-0.424,0.317-0.923,0.563-1.498,0.737
	c-0.574,0.173-1.104,0.261-1.587,0.261c-0.378,0-0.703-0.027-0.976-0.08c-0.271-0.053-0.506-0.136-0.703-0.25
	c-0.196-0.113-0.37-0.246-0.521-0.397c-0.15-0.151-0.287-0.302-0.408-0.453c-0.408,0.393-0.896,0.688-1.463,0.884
	c-0.566,0.197-1.138,0.295-1.712,0.295c-0.515,0-0.995-0.053-1.44-0.159c-0.445-0.106-0.832-0.287-1.156-0.544
	c-0.326-0.257-0.578-0.582-0.76-0.975s-0.272-0.87-0.272-1.429C81.646,16.085,81.748,15.582,81.951,15.182z M86.329,17.223
	c0.128,0.295,0.382,0.442,0.76,0.442c0.348,0,0.616-0.098,0.806-0.295c0.188-0.196,0.283-0.446,0.283-0.749v-2.903
	c-0.439,0.167-0.794,0.321-1.066,0.465c-0.271,0.144-0.48,0.306-0.623,0.488c-0.145,0.181-0.238,0.389-0.284,0.624
	s-0.067,0.533-0.067,0.896C86.137,16.584,86.2,16.928,86.329,17.223z"/>
<path fill="#4F4F4F" d="M100.197,22.28c0.015,0.431,0.029,0.854,0.045,1.27c0.016,0.416,0.034,0.809,0.057,1.179
	c0.023,0.371,0.041,0.677,0.057,0.918c-0.469-0.061-0.896-0.11-1.281-0.147c-0.385-0.038-0.797-0.057-1.236-0.057
	c-0.408,0-0.824,0.019-1.247,0.057s-0.847,0.087-1.271,0.147c0.076-1.376,0.129-2.744,0.159-4.105s0.046-2.684,0.046-3.969
	c0-1.27,0-2.313,0-3.13s-0.008-1.554-0.023-2.211c-0.015-0.658-0.033-1.319-0.057-1.984c-0.022-0.665-0.057-1.474-0.102-2.427
	c0.408,0.045,0.816,0.091,1.225,0.136s0.816,0.068,1.225,0.068c0.756,0,1.497-0.068,2.223-0.204l-0.091,1.384
	c0.438-0.484,0.888-0.847,1.35-1.089c0.461-0.242,1.032-0.363,1.712-0.363c0.832,0,1.568,0.167,2.211,0.499s1.188,0.775,1.634,1.327
	c0.446,0.552,0.782,1.187,1.009,1.905s0.34,1.463,0.34,2.234c0,0.756-0.105,1.5-0.316,2.234c-0.213,0.733-0.525,1.387-0.941,1.962
	s-0.938,1.032-1.565,1.372c-0.628,0.34-1.356,0.51-2.188,0.51c-0.68,0-1.251-0.076-1.713-0.227c-0.461-0.151-0.888-0.461-1.281-0.93
	v2.404C100.174,21.437,100.182,21.849,100.197,22.28z M100.197,15.816c0.075,0.522,0.182,0.938,0.317,1.248
	c0.136,0.31,0.298,0.525,0.487,0.646s0.396,0.181,0.624,0.181c0.528,0,0.915-0.295,1.157-0.884c0.241-0.59,0.362-1.58,0.362-2.971
	c0-0.438-0.008-0.903-0.022-1.395c-0.016-0.491-0.072-0.949-0.17-1.373c-0.1-0.423-0.25-0.774-0.454-1.054s-0.495-0.42-0.873-0.42
	c-0.362,0-0.65,0.133-0.862,0.397c-0.211,0.265-0.366,0.598-0.465,0.998c-0.098,0.401-0.158,0.835-0.182,1.304
	c-0.021,0.469-0.033,0.907-0.033,1.315C100.084,14.626,100.121,15.295,100.197,15.816z"/>
<path fill="none" stroke="#525252" d="M116.727,3.85c-0.451-0.182-0.973-0.273-1.564-0.273c-0.295,0-0.595,0.069-0.898,0.207
	c-0.305,0.138-0.457,0.388-0.457,0.751c0,0.189,0.066,0.406,0.196,0.647c0.13,0.242,0.29,0.492,0.481,0.751
	c0.191,0.259,0.4,0.518,0.627,0.776c0.225,0.259,0.434,0.492,0.625,0.699c0.451,0,0.895-0.004,1.33-0.013
	c0.434-0.008,0.877-0.039,1.328-0.091c-0.034,0.141-0.064,0.282-0.09,0.423c-0.027,0.141-0.039,0.299-0.039,0.475
	c0,0.387,0.043,0.774,0.129,1.162c-0.399-0.035-0.785-0.065-1.159-0.091s-0.761-0.039-1.16-0.039c0,1.947,0.017,3.854,0.052,5.722
	s0.087,3.767,0.156,5.696c-0.416-0.069-0.877-0.126-1.381-0.169c-0.504-0.043-1.035-0.065-1.59-0.065
	c-0.47,0-0.939,0.026-1.408,0.078c-0.469,0.052-0.938,0.104-1.408,0.156c0.088-0.938,0.139-1.92,0.156-2.946
	c0.018-1.025,0.027-1.998,0.027-2.919v-1.721v-1.903c0-0.33-0.006-0.652-0.014-0.965c-0.009-0.312-0.021-0.634-0.039-0.964
	c-0.348,0-0.682,0.013-1.004,0.039s-0.63,0.057-0.926,0.091c0.088-0.44,0.131-0.81,0.131-1.109c0-0.141-0.014-0.303-0.039-0.488
	s-0.057-0.339-0.092-0.462c0.296,0.018,0.604,0.039,0.926,0.065c0.322,0.026,0.656,0.039,1.004,0.039
	c0.069-0.554,0.152-1.056,0.248-1.506c0.095-0.45,0.221-0.878,0.377-1.286c0.156-0.406,0.365-0.8,0.626-1.182
	c0.261-0.381,0.591-0.762,0.991-1.143c0.399-0.381,0.803-0.688,1.212-0.922c0.408-0.234,0.804-0.416,1.187-0.545
	c0.381-0.129,0.738-0.216,1.068-0.26c0.33-0.043,0.625-0.065,0.887-0.065c0.295,0,0.59,0.013,0.886,0.039s0.564,0.057,0.808,0.091
	c-0.156,0.608-0.27,1.217-0.338,1.825c-0.07,0.608-0.122,1.234-0.156,1.877l-0.365,0.156C117.621,4.245,117.179,4.032,116.727,3.85z
	"/>
<path fill="none" stroke="#525252" d="M124.834,10.536c0.104-0.417,0.273-0.838,0.508-1.264c0.234-0.426,0.525-0.816,0.873-1.173
	c0.348-0.356,0.752-0.643,1.213-0.86c0.46-0.217,0.96-0.326,1.499-0.326c0.226,0,0.417,0.009,0.573,0.026
	c0.156,0.018,0.339,0.069,0.547,0.156c-0.086,0.435-0.152,0.83-0.195,1.186c-0.043,0.356-0.078,0.708-0.104,1.056
	c-0.026,0.348-0.044,0.721-0.053,1.121c-0.009,0.4-0.013,0.869-0.013,1.408l-0.339,0.183c-0.296-0.261-0.596-0.439-0.899-0.535
	c-0.304-0.095-0.647-0.143-1.03-0.143c-0.521,0-0.938,0.083-1.251,0.248c-0.312,0.166-0.548,0.391-0.704,0.678
	s-0.26,0.622-0.312,1.004c-0.052,0.382-0.078,0.791-0.078,1.225c0,1.042,0.018,2.064,0.053,3.063c0.034,1,0.086,2.02,0.156,3.063
	c-0.504-0.069-1.013-0.126-1.525-0.169c-0.513-0.043-1.021-0.065-1.525-0.065c-0.469,0-0.938,0.026-1.407,0.078
	c-0.47,0.052-0.938,0.104-1.407,0.156c0.104-0.625,0.178-1.39,0.221-2.294c0.043-0.903,0.065-1.79,0.065-2.659v-1.694
	c0-0.869-0.005-1.594-0.013-2.177c-0.01-0.582-0.022-1.116-0.039-1.603c-0.018-0.486-0.039-0.973-0.065-1.46
	c-0.026-0.486-0.057-1.077-0.091-1.772c0.538,0.087,1.033,0.147,1.485,0.182c0.452,0.035,0.913,0.052,1.382,0.052
	c0.451,0,0.882-0.017,1.291-0.052c0.407-0.035,0.838-0.095,1.289-0.182l-0.208,3.545H124.834z"/>
<path fill="none" stroke="#525252" d="M143.499,18.018c-0.087,0.174-0.165,0.348-0.235,0.521c-0.068,0.174-0.135,0.352-0.195,0.534
	s-0.126,0.396-0.195,0.639c-0.695,0.331-1.451,0.574-2.268,0.73c-0.817,0.156-1.616,0.234-2.398,0.234
	c-1.025,0-1.92-0.104-2.686-0.312c-0.764-0.208-1.42-0.496-1.968-0.86c-0.548-0.365-0.995-0.791-1.343-1.277
	c-0.348-0.486-0.625-0.986-0.834-1.499c-0.209-0.512-0.352-1.025-0.43-1.538c-0.078-0.512-0.117-0.986-0.117-1.42
	c0-0.938,0.139-1.825,0.416-2.659c0.278-0.834,0.705-1.56,1.277-2.177c0.574-0.617,1.295-1.108,2.164-1.473
	c0.869-0.365,1.903-0.548,3.103-0.548c1.042,0,2.028,0.2,2.958,0.6c0.93,0.4,1.708,1.017,2.334,1.851
	c0.521,0.748,0.843,1.542,0.965,2.385c0.121,0.843,0.199,1.655,0.234,2.438c-0.348-0.017-0.722-0.035-1.121-0.052
	c-0.4-0.017-0.791-0.026-1.174-0.026c-1.877,0-3.754,0.026-5.63,0.078c0,0.521,0.061,1.021,0.183,1.499
	c0.121,0.478,0.316,0.908,0.586,1.29c0.27,0.383,0.613,0.687,1.029,0.913c0.418,0.226,0.913,0.339,1.486,0.339
	c0.277,0,0.582-0.039,0.912-0.117c0.33-0.079,0.652-0.183,0.965-0.313s0.613-0.287,0.899-0.469c0.287-0.183,0.534-0.387,0.743-0.613
	l0.652,0.704C143.689,17.645,143.586,17.844,143.499,18.018z M139.289,11.084c-0.01-0.435-0.057-0.83-0.144-1.187
	c-0.087-0.356-0.226-0.647-0.417-0.873c-0.191-0.226-0.469-0.339-0.834-0.339c-0.383,0-0.678,0.117-0.887,0.352
	c-0.209,0.234-0.361,0.53-0.456,0.886c-0.096,0.356-0.152,0.752-0.169,1.186c-0.018,0.435-0.026,0.852-0.026,1.251h2.945
	C139.302,11.944,139.297,11.519,139.289,11.084z"/>
<path fill="none" stroke="#525252" d="M158.462,18.018c-0.087,0.174-0.165,0.348-0.235,0.521c-0.068,0.174-0.135,0.352-0.195,0.534
	s-0.126,0.396-0.195,0.639c-0.695,0.331-1.451,0.574-2.268,0.73c-0.817,0.156-1.616,0.234-2.398,0.234
	c-1.025,0-1.92-0.104-2.686-0.312c-0.764-0.208-1.42-0.496-1.968-0.86c-0.548-0.365-0.995-0.791-1.343-1.277
	c-0.348-0.486-0.625-0.986-0.834-1.499c-0.209-0.512-0.352-1.025-0.43-1.538c-0.078-0.512-0.117-0.986-0.117-1.42
	c0-0.938,0.139-1.825,0.416-2.659c0.278-0.834,0.705-1.56,1.277-2.177c0.574-0.617,1.295-1.108,2.164-1.473
	c0.869-0.365,1.903-0.548,3.103-0.548c1.042,0,2.028,0.2,2.958,0.6c0.93,0.4,1.708,1.017,2.334,1.851
	c0.521,0.748,0.843,1.542,0.965,2.385c0.121,0.843,0.199,1.655,0.234,2.438c-0.348-0.017-0.722-0.035-1.121-0.052
	c-0.4-0.017-0.791-0.026-1.174-0.026c-1.877,0-3.754,0.026-5.63,0.078c0,0.521,0.061,1.021,0.183,1.499
	c0.121,0.478,0.316,0.908,0.586,1.29c0.27,0.383,0.613,0.687,1.029,0.913c0.418,0.226,0.913,0.339,1.486,0.339
	c0.277,0,0.582-0.039,0.912-0.117c0.33-0.079,0.652-0.183,0.965-0.313s0.613-0.287,0.899-0.469c0.287-0.183,0.534-0.387,0.743-0.613
	l0.652,0.704C158.652,17.645,158.549,17.844,158.462,18.018z M154.252,11.084c-0.01-0.435-0.057-0.83-0.144-1.187
	c-0.087-0.356-0.226-0.647-0.417-0.873c-0.191-0.226-0.469-0.339-0.834-0.339c-0.383,0-0.678,0.117-0.887,0.352
	c-0.209,0.234-0.361,0.53-0.456,0.886c-0.096,0.356-0.152,0.752-0.169,1.186c-0.018,0.435-0.026,0.852-0.026,1.251h2.945
	C154.265,11.944,154.26,11.519,154.252,11.084z"/>
</svg>
